# xmcd
#
# Track frame offsets: 
#        150
#        13635
#        25735
#        37790
#        49537
#        64625
#        78197
#        89325
#        105245
#        120835
#        140462
#
# Disc length: 2082 seconds
#
# Revision: 3
# Processed by: cddbd v1.5.2PL0 Copyright (c) Steve Scherf et al.
# Submitted via: ExactAudioCopyFreeDBPlugin 1.0
#
DISCID=6f08200b
DTITLE=Various Artist - Blue Christmas [LaserLight Digital]
DYEAR=1998
DGENRE=Holiday
TTITLE0=Charles Brown - Merry Christmas Baby
TTITLE1=Jerry Butler - Silent Night
TTITLE2=Johnny Adams - This Christmas
TTITLE3=Patti LaBelle - Blue Christmas
TTITLE4=The Drifters - Oh Holy Night
TTITLE5=Mahalia Jackson - Hark! The Herald Angels Sing
TTITLE6=Charles Brown - Let's Make Everyday Christmas
TTITLE7=Johnny Adams - The Christmas Song
TTITLE8=The Drifters - We Wish You a Merry Christmas
TTITLE9=Mahalia Jackson - What Child is This
TTITLE10=Johnny Adams - The Lord's Prayer
EXTD=
EXTT0=
EXTT1=
EXTT2=
EXTT3=
EXTT4=
EXTT5=
EXTT6=
EXTT7=
EXTT8=
EXTT9=
EXTT10=
PLAYORDER=
